<?xml version="1.0" encoding="UTF-8" standalone="no"?>
<!-- Created with Inkscape (http://www.inkscape.org/) -->

<svg
   xmlns:dc="http://purl.org/dc/elements/1.1/"
   xmlns:cc="http://creativecommons.org/ns#"
   xmlns:rdf="http://www.w3.org/1999/02/22-rdf-syntax-ns#"
   xmlns:svg="http://www.w3.org/2000/svg"
   xmlns="http://www.w3.org/2000/svg"
   xmlns:sodipodi="http://sodipodi.sourceforge.net/DTD/sodipodi-0.dtd"
   xmlns:inkscape="http://www.inkscape.org/namespaces/inkscape"
   version="1.1"
   id="svg14041"
   xml:space="preserve"
   width="800"
   height="800"
   viewBox="0 0 800 800"
   sodipodi:docname="logo-51-publicdomainvectors.org [Converted].svg"
   inkscape:version="0.92.4 (5da689c313, 2019-01-14)"><metadata
     id="metadata14047"><rdf:RDF><cc:Work
         rdf:about=""><dc:format>image/svg+xml</dc:format><dc:type
           rdf:resource="http://purl.org/dc/dcmitype/StillImage" /><dc:title></dc:title></cc:Work></rdf:RDF></metadata><defs
     id="defs14045"><clipPath
       clipPathUnits="userSpaceOnUse"
       id="clipPath14057"><path
         d="M 0,600 H 600 V 0 H 0 Z"
         id="path14055"
         inkscape:connector-curvature="0" /></clipPath><clipPath
       clipPathUnits="userSpaceOnUse"
       id="clipPath14065"><path
         d="M 298.603,422.039 H 462.137 V 86.3877 H 298.603 Z"
         id="path14063"
         inkscape:connector-curvature="0" /></clipPath><clipPath
       clipPathUnits="userSpaceOnUse"
       id="clipPath14087"><path
         d="M 286.871,495.137 H 469.872 V 168.864 H 286.871 Z"
         id="path14085"
         inkscape:connector-curvature="0" /></clipPath><clipPath
       clipPathUnits="userSpaceOnUse"
       id="clipPath14109"><path
         d="M 139.844,428.021 H 498.178 V 336.65 H 139.844 Z"
         id="path14107"
         inkscape:connector-curvature="0" /></clipPath><clipPath
       clipPathUnits="userSpaceOnUse"
       id="clipPath14131"><path
         d="M 100.655,485.828 H 384.652 V 240.104 H 100.655 Z"
         id="path14129"
         inkscape:connector-curvature="0" /></clipPath><clipPath
       clipPathUnits="userSpaceOnUse"
       id="clipPath14153"><path
         d="m 192.343,476.088 h 37.574 V 111.703 h -37.574 z"
         id="path14151"
         inkscape:connector-curvature="0" /></clipPath><clipPath
       clipPathUnits="userSpaceOnUse"
       id="clipPath14175"><path
         d="M 94.0371,337.21 H 391.511 V 108.38 H 94.0371 Z"
         id="path14173"
         inkscape:connector-curvature="0" /></clipPath><clipPath
       clipPathUnits="userSpaceOnUse"
       id="clipPath14197"><path
         d="M 141.328,263.761 H 494.854 V 151.32 H 141.328 Z"
         id="path14195"
         inkscape:connector-curvature="0" /></clipPath></defs><sodipodi:namedview
     pagecolor="#ffffff"
     bordercolor="#666666"
     borderopacity="1"
     objecttolerance="10"
     gridtolerance="10"
     guidetolerance="10"
     inkscape:pageopacity="0"
     inkscape:pageshadow="2"
     inkscape:window-width="724"
     inkscape:window-height="480"
     id="namedview14043"
     showgrid="false"
     inkscape:zoom="0.295"
     inkscape:cx="400"
     inkscape:cy="400"
     inkscape:window-x="0"
     inkscape:window-y="0"
     inkscape:window-maximized="0"
     inkscape:current-layer="g14049" /><g
     id="g14049"
     inkscape:groupmode="layer"
     inkscape:label="logo-51-publicdomainvectors.org [Converted]"
     transform="matrix(1.3333333,0,0,-1.3333333,0,800)"><g
       id="g14051"><g
         id="g14053"
         clip-path="url(#clipPath14057)"><g
           id="g14059"><g
             id="g14061" /><g
             id="g14079"><g
               clip-path="url(#clipPath14065)"
               id="g14077"><path
                 d="m 383.615,264.285 c -6.759,2.99 -14.672,-0.058 -17.661,-6.834 -2.984,-6.75 0.067,-14.68 6.828,-17.655 6.754,-2.983 14.67,0.067 17.671,6.819 2.991,6.766 -0.059,14.68 -6.838,17.67"
                 style="fill:#ed0c89;fill-opacity:1;fill-rule:nonzero;stroke:none"
                 id="path14067"
                 inkscape:connector-curvature="0" /><path
                 d="m 349.005,186.063 c -6.218,2.75 -13.495,-0.036 -16.23,-6.262 -2.762,-6.21 0.043,-13.481 6.256,-16.233 6.21,-2.758 13.489,0.056 16.239,6.276 2.747,6.206 -0.056,13.486 -6.265,16.219"
                 style="fill:#ed0c89;fill-opacity:1;fill-rule:nonzero;stroke:none"
                 id="path14069"
                 inkscape:connector-curvature="0" /><path
                 d="m 320.079,93.068 c 2.508,5.663 -0.043,12.288 -5.705,14.79 -5.677,2.515 -12.298,-0.055 -14.803,-5.704 -2.516,-5.677 0.044,-12.3 5.716,-14.801 5.665,-2.514 12.296,0.053 14.792,5.715"
                 style="fill:#ed0c89;fill-opacity:1;fill-rule:nonzero;stroke:none"
                 id="path14071"
                 inkscape:connector-curvature="0" /><path
                 d="m 418.252,342.502 c -7.321,3.238 -15.87,-0.07 -19.109,-7.37 -3.229,-7.32 0.073,-15.872 7.382,-19.111 7.312,-3.242 15.868,0.066 19.101,7.376 3.238,7.302 -0.064,15.85 -7.374,19.105"
                 style="fill:#ed0c89;fill-opacity:1;fill-rule:nonzero;stroke:none"
                 id="path14073"
                 inkscape:connector-curvature="0" /><path
                 d="m 452.868,420.703 c -7.852,3.479 -17.042,-0.071 -20.515,-7.934 -3.483,-7.867 0.059,-17.046 7.924,-20.531 7.858,-3.471 17.054,0.078 20.53,7.949 3.465,7.851 -0.075,17.031 -7.939,20.516"
                 style="fill:#ed0c89;fill-opacity:1;fill-rule:nonzero;stroke:none"
                 id="path14075"
                 inkscape:connector-curvature="0" /></g></g></g><g
           id="g14081"><g
             id="g14083" /><g
             id="g14101"><g
               clip-path="url(#clipPath14087)"
               id="g14099"><path
                 d="m 374.346,341.7 c -6.554,-3.421 -9.104,-11.508 -5.668,-18.07 3.416,-6.542 11.515,-9.1 18.059,-5.669 6.542,3.42 9.094,11.511 5.687,18.068 -3.424,6.556 -11.516,9.105 -18.078,5.671"
                 style="fill:#51aada;fill-opacity:1;fill-rule:nonzero;stroke:none"
                 id="path14089"
                 inkscape:connector-curvature="0" /><path
                 d="m 413.923,265.87 c -6.027,-3.147 -8.385,-10.574 -5.224,-16.595 3.136,-6.03 10.567,-8.372 16.592,-5.229 6.026,3.137 8.366,10.581 5.218,16.608 -3.139,6.018 -10.578,8.366 -16.586,5.216"
                 style="fill:#51aada;fill-opacity:1;fill-rule:nonzero;stroke:none"
                 id="path14091"
                 inkscape:connector-curvature="0" /><path
                 d="m 468.595,185.273 c -2.864,5.491 -9.634,7.628 -15.123,4.76 -5.505,-2.869 -7.621,-9.648 -4.767,-15.129 2.871,-5.507 9.643,-7.635 15.136,-4.758 5.497,2.86 7.622,9.644 4.754,15.127"
                 style="fill:#51aada;fill-opacity:1;fill-rule:nonzero;stroke:none"
                 id="path14093"
                 inkscape:connector-curvature="0" /><path
                 d="m 334.788,417.547 c -7.097,-3.705 -9.84,-12.452 -6.152,-19.536 3.711,-7.089 12.455,-9.839 19.544,-6.142 7.093,3.693 9.843,12.446 6.143,19.532 -3.689,7.085 -12.432,9.831 -19.535,6.146"
                 style="fill:#51aada;fill-opacity:1;fill-rule:nonzero;stroke:none"
                 id="path14095"
                 inkscape:connector-curvature="0" /><path
                 d="m 295.232,493.369 c -7.617,-3.972 -10.571,-13.369 -6.587,-20.988 3.977,-7.628 13.363,-10.581 20.99,-6.606 7.613,3.98 10.573,13.383 6.586,21.009 -3.977,7.604 -13.361,10.561 -20.989,6.585"
                 style="fill:#51aada;fill-opacity:1;fill-rule:nonzero;stroke:none"
                 id="path14097"
                 inkscape:connector-curvature="0" /></g></g></g><g
           id="g14103"><g
             id="g14105" /><g
             id="g14123"><g
               clip-path="url(#clipPath14109)"
               id="g14121"><path
                 d="m 308.041,382.72 c -1.412,-7.257 3.322,-14.294 10.592,-15.699 7.246,-1.409 14.297,3.332 15.694,10.586 1.404,7.247 -3.331,14.288 -10.582,15.71 -7.261,1.411 -14.299,-3.326 -15.704,-10.597"
                 style="fill:#c9de11;fill-opacity:1;fill-rule:nonzero;stroke:none"
                 id="path14111"
                 inkscape:connector-curvature="0" /><path
                 d="m 392.004,366.384 c -1.297,-6.675 3.038,-13.15 9.717,-14.431 6.668,-1.31 13.133,3.041 14.431,9.711 1.31,6.669 -3.054,13.138 -9.729,14.435 -6.662,1.297 -13.136,-3.055 -14.419,-9.715"
                 style="fill:#c9de11;fill-opacity:1;fill-rule:nonzero;stroke:none"
                 id="path14113"
                 inkscape:connector-curvature="0" /><path
                 d="m 489.103,358.875 c -6.079,1.185 -11.97,-2.776 -13.152,-8.854 -1.186,-6.093 2.794,-11.977 8.858,-13.16 6.093,-1.19 11.983,2.779 13.159,8.865 1.189,6.083 -2.789,11.974 -8.865,13.149"
                 style="fill:#c9de11;fill-opacity:1;fill-rule:nonzero;stroke:none"
                 id="path14115"
                 inkscape:connector-curvature="0" /><path
                 d="m 224.077,399.082 c -1.528,-7.857 3.601,-15.457 11.438,-16.99 7.855,-1.519 15.459,3.603 16.988,11.45 1.535,7.85 -3.594,15.456 -11.441,16.981 -7.839,1.533 -15.438,-3.59 -16.985,-11.441"
                 style="fill:#c9de11;fill-opacity:1;fill-rule:nonzero;stroke:none"
                 id="path14117"
                 inkscape:connector-curvature="0" /><path
                 d="m 140.135,415.429 c -1.644,-8.431 3.861,-16.6 12.3,-18.235 8.444,-1.647 16.605,3.85 18.252,12.293 1.637,8.433 -3.87,16.61 -12.317,18.247 -8.425,1.632 -16.588,-3.862 -18.235,-12.305"
                 style="fill:#c9de11;fill-opacity:1;fill-rule:nonzero;stroke:none"
                 id="path14119"
                 inkscape:connector-curvature="0" /></g></g></g><g
           id="g14125"><g
             id="g14127" /><g
             id="g14145"><g
               clip-path="url(#clipPath14131)"
               id="g14143"><path
                 d="m 234.63,356.456 c 4.793,-5.628 13.245,-6.314 18.877,-1.506 5.619,4.786 6.309,13.254 1.509,18.869 -4.79,5.617 -13.247,6.305 -18.88,1.523 -5.63,-4.798 -6.315,-13.253 -1.506,-18.886"
                 style="fill:#4e7840;fill-opacity:1;fill-rule:nonzero;stroke:none"
                 id="path14133"
                 inkscape:connector-curvature="0" /><path
                 d="m 299.752,411.916 c 4.408,-5.177 12.176,-5.824 17.34,-1.402 5.182,4.398 5.81,12.165 1.408,17.34 -4.4,5.179 -12.178,5.802 -17.354,1.392 -5.167,-4.399 -5.801,-12.176 -1.394,-17.33"
                 style="fill:#4e7840;fill-opacity:1;fill-rule:nonzero;stroke:none"
                 id="path14135"
                 inkscape:connector-curvature="0" /><path
                 d="m 366.164,483.149 c -4.717,-4.014 -5.294,-11.089 -1.28,-15.802 4.024,-4.728 11.108,-5.284 15.812,-1.281 4.733,4.023 5.297,11.101 1.274,15.815 -4.013,4.722 -11.102,5.286 -15.806,1.268"
                 style="fill:#4e7840;fill-opacity:1;fill-rule:nonzero;stroke:none"
                 id="path14137"
                 inkscape:connector-curvature="0" /><path
                 d="m 169.487,301.012 c 5.191,-6.093 14.329,-6.822 20.414,-1.651 6.085,5.196 6.822,14.333 1.641,20.421 -5.181,6.094 -14.325,6.826 -20.411,1.643 -6.085,-5.174 -6.817,-14.308 -1.644,-20.413"
                 style="fill:#4e7840;fill-opacity:1;fill-rule:nonzero;stroke:none"
                 id="path14139"
                 inkscape:connector-curvature="0" /><path
                 d="m 104.368,245.576 c 5.566,-6.543 15.386,-7.333 21.926,-1.754 6.553,5.576 7.344,15.383 1.77,21.936 -5.573,6.537 -15.399,7.33 -21.947,1.747 -6.528,-5.57 -7.323,-15.378 -1.749,-21.929"
                 style="fill:#4e7840;fill-opacity:1;fill-rule:nonzero;stroke:none"
                 id="path14141"
                 inkscape:connector-curvature="0" /></g></g></g><g
           id="g14147"><g
             id="g14149" /><g
             id="g14167"><g
               clip-path="url(#clipPath14153)"
               id="g14165"><path
                 d="m 209.394,282.686 c 7.387,0.238 13.194,6.418 12.947,13.819 -0.239,7.377 -6.429,13.197 -13.813,12.944 -7.379,-0.242 -13.189,-6.425 -12.963,-13.81 0.241,-7.394 6.425,-13.201 13.829,-12.953"
                 style="fill:#ea442f;fill-opacity:1;fill-rule:nonzero;stroke:none"
                 id="path14155"
                 inkscape:connector-curvature="0" /><path
                 d="m 206.636,368.178 c 6.797,0.219 12.144,5.887 11.906,12.684 -0.207,6.793 -5.887,12.128 -12.679,11.911 -6.792,-0.21 -12.129,-5.903 -11.907,-12.699 0.216,-6.784 5.901,-12.127 12.68,-11.896"
                 style="fill:#ea442f;fill-opacity:1;fill-rule:nonzero;stroke:none"
                 id="path14157"
                 inkscape:connector-curvature="0" /><path
                 d="m 192.35,464.514 c 0.197,-6.19 5.369,-11.052 11.557,-10.85 6.205,0.197 11.055,5.386 10.861,11.562 -0.196,6.207 -5.377,11.063 -11.572,10.856 -6.194,-0.195 -11.053,-5.383 -10.846,-11.568"
                 style="fill:#ea442f;fill-opacity:1;fill-rule:nonzero;stroke:none"
                 id="path14159"
                 inkscape:connector-curvature="0" /><path
                 d="m 212.124,197.184 c 8.001,0.261 14.268,6.952 14.02,14.932 -0.269,7.998 -6.955,14.271 -14.945,14.015 -7.994,-0.25 -14.267,-6.943 -14.01,-14.933 0.251,-7.983 6.937,-14.251 14.935,-14.014"
                 style="fill:#ea442f;fill-opacity:1;fill-rule:nonzero;stroke:none"
                 id="path14161"
                 inkscape:connector-curvature="0" /><path
                 d="m 214.865,111.711 c 8.586,0.273 15.325,7.456 15.043,16.049 -0.275,8.598 -7.449,15.332 -16.047,15.059 -8.587,-0.28 -15.333,-7.47 -15.049,-16.069 0.284,-8.577 7.456,-15.313 16.053,-15.039"
                 style="fill:#ea442f;fill-opacity:1;fill-rule:nonzero;stroke:none"
                 id="path14163"
                 inkscape:connector-curvature="0" /></g></g></g><g
           id="g14169"><g
             id="g14171" /><g
             id="g14189"><g
               clip-path="url(#clipPath14175)"
               id="g14187"><path
                 d="m 251.334,216.96 c 4.42,5.926 3.208,14.318 -2.732,18.739 -5.917,4.412 -14.326,3.201 -18.733,-2.728 -4.409,-5.922 -3.199,-14.32 2.716,-18.746 5.932,-4.422 14.327,-3.206 18.749,2.735"
                 style="fill:#f6a32c;fill-opacity:1;fill-rule:nonzero;stroke:none"
                 id="path14177"
                 inkscape:connector-curvature="0" /><path
                 d="m 182.774,268.106 c 4.065,5.452 2.968,13.167 -2.493,17.218 -5.441,4.074 -13.153,2.959 -17.218,-2.486 -4.07,-5.442 -2.947,-13.163 2.504,-17.229 5.439,-4.059 13.162,-2.946 17.207,2.497"
                 style="fill:#f6a32c;fill-opacity:1;fill-rule:nonzero;stroke:none"
                 id="path14179"
                 inkscape:connector-curvature="0" /><path
                 d="m 98.548,317.003 c 4.962,-3.706 11.989,-2.693 15.69,2.269 3.714,4.976 2.681,12.003 -2.27,15.702 -4.973,3.716 -12.001,2.694 -15.701,-2.28 -3.709,-4.964 -2.684,-11.997 2.281,-15.691"
                 style="fill:#f6a32c;fill-opacity:1;fill-rule:nonzero;stroke:none"
                 id="path14181"
                 inkscape:connector-curvature="0" /><path
                 d="m 319.882,165.787 c 4.786,6.416 3.464,15.487 -2.932,20.27 -6.42,4.775 -15.492,3.461 -20.274,-2.946 -4.789,-6.407 -3.467,-15.484 2.941,-20.264 6.397,-4.783 15.465,-3.462 20.265,2.94"
                 style="fill:#f6a32c;fill-opacity:1;fill-rule:nonzero;stroke:none"
                 id="path14183"
                 inkscape:connector-curvature="0" /><path
                 d="m 388.421,114.637 c 5.14,6.883 3.722,16.632 -3.171,21.766 -6.895,5.147 -16.632,3.736 -21.78,-3.155 -5.132,-6.89 -3.718,-16.645 3.181,-21.785 6.883,-5.127 16.622,-3.718 21.77,3.174"
                 style="fill:#f6a32c;fill-opacity:1;fill-rule:nonzero;stroke:none"
                 id="path14185"
                 inkscape:connector-curvature="0" /></g></g></g><g
           id="g14191"><g
             id="g14193" /><g
             id="g14211"><g
               clip-path="url(#clipPath14197)"
               id="g14209"><path
                 d="m 328.872,208.771 c -1.879,7.15 -9.195,11.435 -16.355,9.546 -7.14,-1.874 -11.436,-9.204 -9.547,-16.346 1.878,-7.14 9.199,-11.428 16.349,-9.564 7.154,1.881 11.439,9.199 9.553,16.364"
                 style="fill:#961a1f;fill-opacity:1;fill-rule:nonzero;stroke:none"
                 id="path14199"
                 inkscape:connector-curvature="0" /><path
                 d="m 246.135,187.058 c -1.728,6.579 -8.443,10.528 -15.015,8.787 -6.577,-1.714 -10.515,-8.44 -8.792,-15.013 1.716,-6.573 8.454,-10.51 15.03,-8.783 6.566,1.72 10.511,8.452 8.777,15.009"
                 style="fill:#961a1f;fill-opacity:1;fill-rule:nonzero;stroke:none"
                 id="path14201"
                 inkscape:connector-curvature="0" /><path
                 d="m 155.394,151.693 c 5.989,1.57 9.579,7.694 8.005,13.683 -1.572,6.005 -7.711,9.58 -13.689,8.014 -6.007,-1.571 -9.589,-7.702 -8.008,-13.696 1.568,-5.995 7.708,-9.58 13.692,-8.001"
                 style="fill:#961a1f;fill-opacity:1;fill-rule:nonzero;stroke:none"
                 id="path14203"
                 inkscape:connector-curvature="0" /><path
                 d="m 411.618,230.458 c -2.032,7.743 -9.951,12.364 -17.677,10.346 -7.737,-2.04 -12.364,-9.955 -10.337,-17.688 2.022,-7.738 9.944,-12.366 17.676,-10.336 7.729,2.023 12.35,9.934 10.338,17.678"
                 style="fill:#961a1f;fill-opacity:1;fill-rule:nonzero;stroke:none"
                 id="path14205"
                 inkscape:connector-curvature="0" /><path
                 d="m 494.341,252.152 c -2.176,8.309 -10.681,13.281 -18.995,11.092 -8.322,-2.181 -13.291,-10.674 -11.111,-18.994 2.185,-8.309 10.695,-13.286 19.016,-11.099 8.299,2.187 13.269,10.68 11.09,19.001"
                 style="fill:#961a1f;fill-opacity:1;fill-rule:nonzero;stroke:none"
                 id="path14207"
                 inkscape:connector-curvature="0" /></g></g></g></g></g></g></svg>